HIERARCHY
ROOT Hips
{
	OFFSET 0 0 0
	CHANNELS 6 Xposition Yposition Zposition Zrotation Yrotation Xrotation
	JOINT LeftThigh
	{
		OFFSET 8.209213 0 -5.776854
		CHANNELS 3 Zrotation Yrotation Xrotation
		JOINT LeftLeg
		{
			OFFSET 0 0 -41.350112
			CHANNELS 3 Zrotation Yrotation Xrotation
			JOINT LeftFoot
			{
				OFFSET 0 0 -38.420225
				CHANNELS 3 Zrotation Yrotation Xrotation
				End Site
				{
					OFFSET 0 -13.011281 -4.889596
				}
			}
		}
	}
	JOINT RightThigh
	{
		OFFSET -8.209213 0 -5.776854
		CHANNELS 3 Zrotation Yrotation Xrotation
		JOINT RightLeg
		{
			OFFSET 0 0 -41.350112
			CHANNELS 3 Zrotation Yrotation Xrotation
			JOINT RightFoot
			{
				OFFSET 0 0 -38.420225
				CHANNELS 3 Zrotation Yrotation Xrotation
				End Site
				{
					OFFSET 0 -13.011281 -4.889596
				}
			}
		}
	}
	JOINT SpineLow
	{
		OFFSET 0 0 4.606742
		CHANNELS 3 Zrotation Yrotation Xrotation
		JOINT SpineMid
		{
			OFFSET 0 0 12.592067
			CHANNELS 3 Zrotation Yrotation Xrotation
			JOINT Chest
			{
				OFFSET 0 0 12.592067
				CHANNELS 3 Zrotation Yrotation Xrotation
				JOINT LeftShoulder
				{
					OFFSET 7.370787 1.382022 9.213483
					CHANNELS 3 Zrotation Yrotation Xrotation
					JOINT LeftArm
					{
						OFFSET 8.937079 0 4.146067
						CHANNELS 3 Zrotation Yrotation Xrotation
						JOINT LeftForearm
						{
							OFFSET 0 0 25.158337
							CHANNELS 3 Zrotation Yrotation Xrotation
							JOINT LeftHand
							{
								OFFSET 0 0 24.597236
								CHANNELS 3 Zrotation Yrotation Xrotation
							}
						}
					}
				}
				JOINT RightShoulder
				{
					OFFSET -7.370787 1.382022 9.213483
					CHANNELS 3 Zrotation Yrotation Xrotation
					JOINT RightArm
					{
						OFFSET -8.937079 0 4.146067
						CHANNELS 3 Zrotation Yrotation Xrotation
						JOINT RightForearm
						{
							OFFSET 0 0 -25.158337
							CHANNELS 3 Zrotation Yrotation Xrotation
							JOINT RightHand
							{
								OFFSET 0 0 -24.597236
								CHANNELS 3 Zrotation Yrotation Xrotation
							}
						}
					}
				}
				JOINT Neck
				{
					OFFSET 0 0 14.741573
					CHANNELS 3 Zrotation Yrotation Xrotation
					JOINT Head
					{
						OFFSET 0 0 11.05618
						CHANNELS 3 Zrotation Yrotation Xrotation
						End Site
						{
							OFFSET 0 0 7.325843
						}
					}
				}
			}
		}
	}
}
MOTION
Frames: 10
Frame Time: 0.01
199.042718081935 90.2535551073255 -97.0908609057986 -6.326047 54.583547 -86.850068 -4.4876 -4.31103 -17.163224 -30.298716 4.731487 28.313581 -2.481013 6.917361 2.052646 5.237798 18.128278 -31.656569 6.24442 0.332511 9.442488 3.66176 -1.779742 -0.068815 0.930658 -0.244809 -0.808616 2.551791 -0.637851 -2.219378 2.55179 -0.637851 -2.219378 10.848152 -1.750461 12.740681 71.982338 13.203237 110.195302 17.40002 52.812329 141.067554 57.206691 -2.535099 16.106899 23.554647 -8.680397 3.338327 5.678628 53.86383 -52.2474 -62.560887 -24.708132 -101.661629 59.502331 10.123717 16.362634 -27.880927 -2.764834 1.217081 -20.901231 -2.134491 0.78821
199.073161219621 90.2030990444525 -97.7385245898012 -5.944252 53.011767 -85.687238 -3.134988 -3.797045 -18.510275 -30.951208 5.749325 28.666266 -1.233329 6.51189 1.955643 5.528599 18.183037 -33.723299 5.7469 -0.003081 11.348406 1.782024 -1.796055 0.595755 0.836936 -0.279803 -0.840991 2.297181 -0.735502 -2.308218 2.297181 -0.735502 -2.308218 10.956407 -1.436313 12.73572 71.462448 13.185735 109.749081 17.332317 52.756978 140.988829 57.908054 -2.306755 16.349677 23.677048 -8.551771 3.706302 8.059076 53.16405 -51.378722 -61.81647 -24.911868 -102.527495 59.480245 10.359035 16.143221 -28.010232 -2.853082 0.863551 -20.999342 -2.184887 0.517802
198.688603584949 90.0306698809306 -98.3310155211084 -5.769487 50.996908 -84.942527 -1.787012 -3.917812 -20.123086 -30.611678 7.399019 29.568826 -0.129203 6.001774 1.739862 6.403203 17.809178 -35.760788 4.165651 -0.461297 14.413859 0.724091 -1.27542 1.130049 0.675038 -0.303801 -0.748884 1.854438 -0.809344 -2.055389 1.854438 -0.809344 -2.055389 11.879 -1.234956 12.292668 71.070951 13.397821 109.26238 17.504684 52.637924 141.065133 58.582742 -2.072348 16.443555 24.640425 -8.242163 3.490766 10.908133 52.602021 -50.265793 -61.429616 -24.648371 -103.232833 59.217616 10.636888 15.880086 -27.488728 -3.239475 0.3266 -20.609308 -2.450199 0.099104
198.013614761222 89.8311421298836 -99.0413982222414 -5.721557 49.56947 -84.237224 -1.246699 -4.386957 -22.111439 -29.600166 8.961035 30.582026 0.422027 5.604743 1.602647 6.271728 16.994109 -38.299197 2.546018 -0.503162 18.859156 0.437338 -1.062074 1.461175 0.524399 -0.378059 -0.699721 1.444298 -1.018059 -1.920852 1.444298 -1.018059 -1.920852 12.292997 -0.963205 12.199507 70.54198 13.821793 108.827858 17.980347 52.486531 141.366662 59.125493 -1.827087 16.437982 25.171387 -7.813491 3.679745 13.365626 52.501077 -49.030754 -61.421404 -24.401508 -103.73996 58.803404 10.909417 15.616702 -27.417049 -3.392464 -0.266704 -20.558233 -2.538445 -0.353346
197.678905270698 89.4515669718221 -99.6657032445107 -5.762729 48.17372 -83.725634 -1.118795 -5.074946 -24.093554 -26.186611 9.953387 32.605509 -0.947566 4.754065 0.913114 7.028511 15.685126 -40.976229 0.384164 1.160716 25.007927 1.39387 -1.939977 1.640727 0.419039 -0.434461 -0.629369 1.156732 -1.176518 -1.727956 1.156732 -1.176518 -1.727955 12.42692 -0.828088 12.066294 69.904325 14.262115 108.372545 18.695086 52.32484 141.898792 59.524552 -1.573999 16.400514 25.421064 -7.430272 3.742976 15.648778 52.646272 -47.553564 -61.668987 -24.385255 -103.996641 58.274406 11.211884 15.252925 -27.473353 -3.629751 -0.772159 -20.602706 -2.694049 -0.744273
196.787223527011 89.2359530176353 -100.67349881378 -5.763524 46.992438 -83.247277 -1.46832 -5.827368 -26.012295 -24.031054 10.887673 33.721773 -0.866495 4.67498 0.93303 6.714498 14.883631 -43.59742 -1.09948 1.878789 31.426135 3.385969 -2.536993 1.619342 0.29615 -0.476103 -0.567902 0.820721 -1.29432 -1.558291 0.820721 -1.29432 -1.558291 12.580303 -0.782648 11.982856 69.088744 14.595081 107.904887 19.445606 52.220846 142.558102 59.989386 -1.267238 16.414947 25.590344 -7.088724 3.762889 17.572838 52.709413 -46.164893 -61.822863 -24.588127 -104.02564 57.713942 11.492427 14.828495 -27.586087 -3.83049 -1.15192 -20.689114 -2.827691 -1.039474
195.990621316965 89.0319981483199 -101.690427049703 -5.751942 45.878191 -82.806333 -1.842175 -6.501408 -27.729819 -21.768476 11.417672 34.766412 -1.163549 4.706058 0.919401 6.552508 14.149697 -46.003898 -1.071103 1.794439 37.667604 3.885838 -2.808923 1.99505 0.192876 -0.521982 -0.484687 0.537723 -1.422843 -1.329185 0.537723 -1.422843 -1.329185 12.581262 -0.536349 11.701904 68.18548 14.695476 107.389925 19.988728 52.070094 143.127701 60.443268 -1.221531 16.300869 25.61386 -6.630185 3.593329 19.186735 52.563058 -45.180328 -61.769401 -24.773163 -103.866753 57.315225 11.673168 14.563768 -27.739889 -4.056748 -1.519043 -20.806398 -2.980883 -1.326686
195.315109343462 88.8995181691385 -102.663772941482 -5.699855 44.930186 -82.371673 -2.087375 -6.924034 -29.141975 -19.932154 11.53206 35.461614 -1.378168 4.856535 1.073966 6.328642 13.227844 -48.078798 0.07797 0.721488 44.018972 3.487121 -2.973974 1.94238 0.069199 -0.556007 -0.427846 0.199011 -1.518508 -1.171255 0.199011 -1.518508 -1.171255 12.503821 -0.220071 11.431278 67.319693 14.521169 106.79854 20.213882 51.955442 143.507035 61.081715 -1.109802 16.217261 25.586398 -6.313346 3.476 19.891381 52.204763 -44.606376 -61.19746 -25.439415 -103.609587 57.191653 11.781229 14.557179 -27.9306 -4.229841 -1.758289 -20.95074 -3.099693 -1.515741
194.798657412138 88.9311028384862 -103.56243617089 -5.926423 42.88233 -82.351663 -0.787814 -7.090165 -29.84052 -18.809793 11.436162 35.592578 -1.497962 4.970222 1.278826 7.149473 12.003411 -49.567111 1.344805 -0.899663 50.432324 3.245414 -2.980072 1.295216 0.166035 -0.590682 -0.343635 0.462307 -1.612165 -0.943514 0.462307 -1.612165 -0.943514 12.250939 0.180591 11.207547 66.327312 14.259545 106.084404 20.160435 51.770504 143.68719 61.512856 -1.103373 16.010889 25.030925 -6.065541 3.169625 20.654423 51.695228 -44.048022 -60.429377 -26.076608 -103.307835 57.206709 11.923225 14.717058 -28.196635 -4.419602 -1.875462 -21.150709 -3.236339 -1.614506
194.644053825934 88.9610276814244 -104.119721850754 -5.828655 42.105169 -81.923876 -0.511582 -7.012734 -30.423335 -18.023308 11.253171 35.513828 -1.651435 4.962935 1.395255 6.673893 10.997135 -50.885342 2.179997 -2.681735 56.566364 3.123559 -2.866292 0.854134 0.083614 -0.598301 -0.346856 0.237171 -1.634154 -0.950342 0.237171 -1.634154 -0.950343 11.798793 0.374876 11.195034 65.477524 13.995707 105.518075 20.025626 51.715135 143.790761 61.754593 -0.974049 15.878763 24.546828 -6.094183 3.263993 20.804317 51.283658 -43.849983 -59.591434 -26.622623 -103.045409 57.207524 12.097676 14.901158 -28.641926 -4.539303 -1.858085 -21.484158 -3.326057 -1.610447
